<?xml version="1.0" standalone="no"?>
<!DOCTYPE svg PUBLIC "-//W3C//DTD SVG 20010904//EN"
 "http://www.w3.org/TR/2001/REC-SVG-20010904/DTD/svg10.dtd">
<svg version="1.0" xmlns="http://www.w3.org/2000/svg"
 width="300.000000pt" height="156.000000pt" viewBox="0 0 300.000000 156.000000"
 preserveAspectRatio="xMidYMid meet">
<metadata>
Created by potrace 1.10, written by Peter Selinger 2001-2011
</metadata>
<g transform="translate(0.000000,156.000000) scale(0.100000,-0.100000)"
fill="#000000" stroke="none">
<path d="M2 783 l-2 -783 1503 2 1502 3 -1497 2 -1498 3 0 735 0 735 1495 0
1495 0 0 29 c0 17 -6 33 -12 38 -14 9 -355 15 -405 7 -19 -3 -37 -14 -44 -26
-8 -15 -8 -19 0 -14 6 4 11 2 11 -3 0 -6 -11 -11 -24 -11 -19 0 -23 4 -19 20
3 12 -1 22 -10 26 -22 8 -57 -13 -51 -31 4 -10 0 -15 -11 -15 -11 0 -15 5 -12
14 3 8 -3 22 -14 32 -18 16 -19 16 -25 -14 -4 -19 -13 -32 -21 -32 -9 0 -13 6
-10 14 3 7 0 19 -6 25 -13 13 -47 15 -47 2 0 -5 9 -7 21 -4 16 5 20 2 18 -12
-6 -31 -29 -29 -42 4 -9 26 -17 31 -44 31 -32 0 -37 -6 -36 -47 1 -7 -3 -13
-8 -13 -5 0 -9 9 -9 20 0 29 -41 44 -58 22 -7 -9 -10 -22 -8 -29 3 -7 1 -13
-4 -13 -5 0 -10 10 -12 23 -2 16 -10 22 -28 22 -19 0 -25 -5 -24 -22 1 -22 -3
-23 -67 -23 -67 0 -67 0 -74 30 l-7 30 -400 0 -400 0 -11 -30 -11 -30 -136 0
c-130 0 -136 1 -145 22 -9 20 -16 22 -90 21 -202 -4 -291 -4 -300 -3 -6 2 -38
2 -72 1 -58 -1 -63 -3 -64 -23 -1 -21 -1 -22 -7 -3 -8 24 -39 29 -162 30 -81
0 -85 -1 -88 -22 -5 -34 -20 -28 -25 10 -2 17 -5 -320 -5 -750z m1908 742 l0
-25 -390 -2 -390 -3 0 28 0 27 390 0 390 0 0 -25z m364 16 c3 -4 -3 -16 -13
-25 -21 -19 -37 -7 -27 19 6 16 32 20 40 6z m586 -2 c0 -3 14 -4 30 -1 19 3
30 0 30 -8 0 -8 -30 -11 -107 -9 -60 1 -112 1 -118 -1 -26 -6 -145 1 -145 9 0
5 10 11 23 13 39 5 287 3 287 -3z m126 -1 c5 -7 3 -8 -6 -3 -9 5 -10 2 -5 -14
5 -16 2 -21 -13 -21 -15 0 -20 6 -18 25 1 26 29 35 42 13z m-876 -13 c0 -8 -6
-15 -14 -15 -20 0 -29 17 -14 23 22 9 28 7 28 -8z m74 0 c4 -10 -1 -15 -14
-15 -11 0 -20 7 -20 15 0 8 6 15 14 15 8 0 16 -7 20 -15z m226 8 c0 -5 -5 -15
-10 -23 -7 -12 -9 -10 -7 8 1 19 17 33 17 15z m90 0 c0 -13 -14 -28 -27 -30
-14 -3 -18 19 -6 30 9 9 33 9 33 0z m-2250 -14 c0 -4 -47 -8 -105 -8 -58 0
-105 3 -105 8 0 5 47 8 105 8 58 -1 105 -4 105 -8z m110 1 c0 -5 -13 -10 -30
-10 -16 0 -30 5 -30 10 0 6 14 10 30 10 17 0 30 -4 30 -10z m97 -2 c-2 -7 -11
-11 -18 -9 -8 2 -26 3 -41 3 -47 -1 -31 14 18 17 34 1 45 -1 41 -11z m33 2 c0
-5 -4 -10 -10 -10 -5 0 -10 5 -10 10 0 6 5 10 10 10 6 0 10 -4 10 -10z m210
-3 c0 -8 -17 -11 -47 -10 -27 1 -69 2 -95 2 -27 1 -48 5 -48 10 0 5 43 9 95 9
66 0 95 -3 95 -11z m110 3 c0 -6 -22 -10 -50 -10 -27 0 -50 4 -50 9 0 4 23 9
50 10 28 0 50 -4 50 -9z m1847 -16 c-3 -3 -12 -4 -19 -1 -8 3 -5 6 6 6 11 1
17 -2 13 -5z m261 1 c-9 -9 -178 -11 -178 -3 0 5 41 8 92 8 50 0 89 -2 86 -5z"/>
<path d="M1185 1520 c3 -5 16 -10 28 -9 21 0 21 1 2 9 -28 12 -37 12 -30 0z"/>
<path d="M1240 1520 c0 -5 5 -10 10 -10 6 0 10 5 10 10 0 6 -4 10 -10 10 -5 0
-10 -4 -10 -10z"/>
<path d="M70 1460 c0 -5 5 -10 11 -10 5 0 7 5 4 10 -3 6 -8 10 -11 10 -2 0 -4
-4 -4 -10z"/>
<path d="M135 1459 c-4 -6 -4 -13 -1 -16 3 -4 6 0 7 8 0 8 4 6 9 -6 8 -19 9
-19 9 3 1 23 -13 30 -24 11z"/>
<path d="M720 1450 c0 -11 7 -20 15 -20 8 0 15 9 15 20 0 11 -7 20 -15 20 -8
0 -15 -9 -15 -20z"/>
<path d="M2956 1461 c-3 -5 1 -14 9 -21 12 -10 15 -10 15 3 0 19 -16 31 -24
18z"/>
<path d="M203 1445 c0 -8 8 -15 18 -15 12 0 16 5 13 15 -4 8 -12 15 -18 15 -7
0 -13 -7 -13 -15z"/>
<path d="M280 1449 c-42 -8 -34 -10 43 -12 32 -2 60 1 63 4 6 10 -65 15 -106
8z"/>
<path d="M532 1451 c-11 -7 -11 -9 2 -14 10 -4 16 -1 16 8 0 17 -1 17 -18 6z"/>
<path d="M567 1448 c2 -5 31 -8 64 -8 32 0 59 3 59 8 0 4 -29 7 -64 7 -35 0
-62 -3 -59 -7z"/>
<path d="M835 1450 c-3 -5 -1 -10 4 -10 6 0 11 5 11 10 0 6 -2 10 -4 10 -3 0
-8 -4 -11 -10z"/>
<path d="M886 1453 c-11 -11 -6 -23 9 -23 8 0 15 4 15 9 0 13 -16 22 -24 14z"/>
<path d="M930 1448 c0 -9 31 -15 58 -10 37 7 25 19 -18 18 -22 -1 -40 -4 -40
-8z"/>
<path d="M2881 1448 c-1 -10 6 -18 14 -18 8 0 15 8 15 18 0 13 -2 14 -9 3 -7
-11 -9 -11 -14 0 -4 10 -6 9 -6 -3z"/>
<path d="M778 1443 c6 -2 18 -2 25 0 6 3 1 5 -13 5 -14 0 -19 -2 -12 -5z"/>
<path d="M92 1415 c0 -16 2 -22 5 -12 2 9 2 23 0 30 -3 6 -5 -1 -5 -18z"/>
<path d="M1058 1413 c29 -2 74 -2 100 0 26 2 2 3 -53 3 -55 0 -76 -1 -47 -3z"/>
<path d="M1408 1413 c90 -2 234 -2 320 0 86 1 13 3 -163 3 -176 0 -247 -2
-157 -3z"/>
<path d="M1982 1413 c48 -2 129 -2 180 0 51 1 12 3 -87 3 -99 0 -141 -2 -93
-3z"/>
<path d="M2343 1413 c42 -2 112 -2 155 0 42 1 7 3 -78 3 -85 0 -120 -2 -77 -3z"/>
<path d="M2688 1413 c28 -2 76 -2 105 0 28 2 5 3 -53 3 -58 0 -81 -1 -52 -3z"/>
<path d="M2928 1413 c7 -3 16 -2 19 1 4 3 -2 6 -13 5 -11 0 -14 -3 -6 -6z"/>
<path d="M792 1403 c43 -5 58 -30 25 -43 -21 -8 -21 -9 6 -9 24 -1 27 3 27 29
0 29 -1 30 -47 28 -43 -1 -44 -2 -11 -5z"/>
<path d="M36 1392 c-6 -9 8 -34 19 -34 11 0 25 25 19 34 -3 4 -11 8 -19 8 -8
0 -16 -4 -19 -8z"/>
<path d="M163 1385 c-3 -9 -3 -18 0 -21 9 -9 27 6 27 22 0 19 -19 18 -27 -1z"/>
<path d="M520 1385 c0 -8 9 -15 20 -15 11 0 20 7 20 15 0 8 -9 15 -20 15 -11
0 -20 -7 -20 -15z"/>
<path d="M110 1380 c0 -5 5 -10 10 -10 6 0 10 5 10 10 0 6 -4 10 -10 10 -5 0
-10 -4 -10 -10z"/>
<path d="M216 1382 c-4 -7 -4 -12 1 -13 52 -5 73 -2 73 9 0 14 -2 15 -34 3
-17 -7 -26 -7 -29 2 -2 8 -5 8 -11 -1z"/>
<path d="M460 1380 c0 -5 5 -10 10 -10 6 0 10 5 10 10 0 6 -4 10 -10 10 -5 0
-10 -4 -10 -10z"/>
<path d="M580 1382 c-31 -11 0 -17 68 -16 128 3 132 4 132 14 0 5 -6 7 -13 4
-17 -6 -117 -10 -117 -4 0 6 -54 7 -70 2z"/>
<path d="M2900 1380 c-9 -6 -10 -10 -3 -10 6 0 15 5 18 10 8 12 4 12 -15 0z"/>
<path d="M2958 1373 c6 -2 18 -2 25 0 6 3 1 5 -13 5 -14 0 -19 -2 -12 -5z"/>
<path d="M92 1340 c0 -19 2 -27 5 -17 2 9 2 25 0 35 -3 9 -5 1 -5 -18z"/>
<path d="M1038 1343 c84 -2 219 -2 300 0 81 1 12 3 -153 3 -165 0 -231 -2
-147 -3z"/>
<path d="M1708 1343 c123 -2 321 -2 440 0 119 1 19 2 -223 2 -242 0 -340 -1
-217 -2z"/>
<path d="M2453 1343 c48 -2 125 -2 170 0 45 1 6 3 -88 3 -93 0 -130 -2 -82 -3z"/>
<path d="M192 1315 c-11 -12 -10 -15 3 -15 8 0 15 7 15 15 0 18 -2 18 -18 0z"/>
<path d="M331 1321 c-8 -6 -9 -11 -3 -15 6 -3 14 -1 17 5 9 14 2 20 -14 10z"/>
<path d="M492 1313 c4 -22 44 -29 63 -13 22 18 9 30 -31 30 -28 0 -35 -4 -32
-17z m28 -3 c0 -5 -4 -10 -10 -10 -5 0 -10 5 -10 10 0 6 5 10 10 10 6 0 10 -4
10 -10z"/>
<path d="M580 1314 c0 -8 11 -14 25 -14 14 0 25 4 25 9 0 5 -11 11 -25 13 -17
4 -25 1 -25 -8z"/>
<path d="M640 1316 c0 -13 12 -16 55 -16 30 0 58 0 62 -1 4 0 9 4 11 9 1 5
-23 10 -54 11 -31 1 -61 4 -65 7 -5 3 -9 -2 -9 -10z"/>
<path d="M2760 1315 c0 -8 7 -15 15 -15 8 0 15 7 15 15 0 8 -7 15 -15 15 -8 0
-15 -7 -15 -15z"/>
<path d="M2821 1314 c0 -11 3 -14 6 -6 3 7 2 16 -1 19 -3 4 -6 -2 -5 -13z"/>
<path d="M2841 1314 c0 -11 3 -14 6 -6 3 7 2 16 -1 19 -3 4 -6 -2 -5 -13z"/>
<path d="M2880 1317 c0 -7 9 -13 19 -14 14 -1 18 3 14 13 -6 17 -33 19 -33 1z"/>
<path d="M226 1309 c3 -5 18 -9 35 -9 16 0 29 4 29 9 0 5 -16 9 -35 9 -19 0
-32 -4 -29 -9z"/>
<path d="M370 1309 c0 -5 20 -9 45 -9 25 0 45 4 45 10 0 5 -20 9 -45 8 -25 0
-45 -4 -45 -9z"/>
<path d="M780 1310 c0 -5 5 -10 10 -10 6 0 10 5 10 10 0 6 -4 10 -10 10 -5 0
-10 -4 -10 -10z"/>
<path d="M2958 1313 c7 -3 16 -2 19 1 4 3 -2 6 -13 5 -11 0 -14 -3 -6 -6z"/>
<path d="M53 1298 c-6 -7 -14 -20 -19 -28 -7 -13 -5 -13 16 1 25 17 38 39 22
39 -5 0 -14 -6 -19 -12z"/>
<path d="M168 1273 c7 -3 16 -2 19 1 4 3 -2 6 -13 5 -11 0 -14 -3 -6 -6z"/>
<path d="M223 1273 c15 -2 39 -2 55 0 15 2 2 4 -28 4 -30 0 -43 -2 -27 -4z"/>
<path d="M318 1273 c6 -2 18 -2 25 0 6 3 1 5 -13 5 -14 0 -19 -2 -12 -5z"/>
<path d="M468 1273 c7 -3 16 -2 19 1 4 3 -2 6 -13 5 -11 0 -14 -3 -6 -6z"/>
<path d="M1003 1273 c59 -2 154 -2 210 0 56 1 8 3 -108 3 -116 0 -161 -2 -102
-3z"/>
<path d="M1493 1273 c97 -2 257 -2 355 0 97 1 17 2 -178 2 -195 0 -275 -1
-177 -2z"/>
<path d="M2143 1273 c64 -2 170 -2 235 0 64 1 11 3 -118 3 -129 0 -182 -2
-117 -3z"/>
<path d="M2698 1273 c12 -2 32 -2 45 0 12 2 2 4 -23 4 -25 0 -35 -2 -22 -4z"/>
<path d="M2818 1273 c23 -2 61 -2 85 0 23 2 4 4 -43 4 -47 0 -66 -2 -42 -4z"/>
<path d="M2963 1273 c9 -2 23 -2 30 0 6 3 -1 5 -18 5 -16 0 -22 -2 -12 -5z"/>
<path d="M87 1263 c-2 -5 0 -21 4 -38 7 -29 7 -29 8 8 1 35 -3 46 -12 30z"/>
<path d="M220 1145 c0 -57 4 -95 10 -95 6 0 10 38 10 95 0 57 -4 95 -10 95 -6
0 -10 -38 -10 -95z"/>
<path d="M273 1233 c27 -4 27 -4 27 -88 0 -84 0 -84 -27 -88 l-28 -4 28 -2 27
-1 0 -164 c0 -91 3 -167 8 -169 4 -3 6 114 4 259 l-3 264 -32 -1 c-30 -2 -30
-2 -4 -6z"/>
<path d="M444 1233 l125 -4 6 -29 c4 -16 11 -32 15 -35 5 -3 3 11 -4 32 l-13
38 -127 0 -126 1 124 -3z"/>
<path d="M611 1223 c0 -10 5 -27 10 -38 7 -15 8 -12 3 13 -5 31 -5 32 30 32
l36 0 0 -84 c0 -58 -4 -86 -12 -89 -7 -3 21 -5 62 -4 67 1 69 1 18 4 l-58 4 0
84 0 85 129 0 c95 0 131 -3 134 -12 2 -8 3 -7 3 2 -1 13 -29 15 -179 18 -164
2 -177 1 -176 -15z"/>
<path d="M1000 1218 c0 -13 5 -30 10 -38 7 -11 8 -6 4 18 -6 31 -5 32 25 32
28 0 31 -3 31 -29 0 -17 3 -32 8 -35 4 -2 7 11 6 30 l-2 35 131 -3 130 -3 13
-35 c7 -19 13 -30 13 -24 1 6 -4 25 -10 43 l-11 31 -174 0 c-174 0 -174 0
-174 -22z"/>
<path d="M1386 1213 c4 -16 10 -32 15 -37 5 -5 5 5 0 22 -9 31 -9 32 24 32 33
0 34 -2 38 -42 l4 -43 1 43 2 42 129 0 129 0 12 -36 c16 -47 23 -39 8 9 l-11
37 -179 0 -178 0 6 -27z"/>
<path d="M1770 1232 c0 -4 18 -6 39 -4 l40 4 4 -49 3 -48 2 48 2 47 129 0 c78
0 131 -4 134 -10 3 -6 4 -5 3 2 -2 10 -46 14 -179 16 -97 1 -177 -1 -177 -6z"/>
<path d="M2161 1223 c0 -11 3 -13 6 -5 2 6 20 12 39 12 l34 0 0 -86 0 -86 -40
4 c-22 2 -40 0 -40 -4 0 -5 80 -7 178 -6 165 2 168 3 45 5 l-133 4 0 84 0 85
129 0 c95 0 131 -3 134 -12 2 -8 3 -7 3 2 -1 13 -29 15 -179 18 -164 2 -177 1
-176 -15z"/>
<path d="M2551 1218 c1 -17 2 -19 6 -5 6 24 63 24 63 0 0 -16 1 -16 13 0 10
14 34 17 137 20 111 2 106 3 -47 5 l-173 2 1 -22z"/>
<path d="M2910 1143 c0 -53 3 -93 6 -90 11 10 14 187 3 187 -5 0 -9 -43 -9
-97z"/>
<path d="M35 1200 c-8 -13 3 -30 20 -30 14 0 27 24 18 34 -10 9 -31 7 -38 -4z"/>
<path d="M320 1195 c0 -8 5 -15 10 -15 6 0 10 7 10 15 0 8 -4 15 -10 15 -5 0
-10 -7 -10 -15z"/>
<path d="M1781 1194 c0 -11 3 -14 6 -6 3 7 2 16 -1 19 -3 4 -6 -2 -5 -13z"/>
<path d="M350 1189 c0 -5 47 -8 105 -8 65 0 103 4 99 10 -7 12 -204 10 -204
-2z"/>
<path d="M710 1189 c0 -4 38 -8 85 -7 47 1 85 5 85 10 0 4 -38 8 -85 7 -47 0
-85 -5 -85 -10z"/>
<path d="M1105 1190 c3 -5 47 -10 96 -10 58 0 88 4 84 10 -3 6 -47 10 -96 10
-58 0 -88 -4 -84 -10z"/>
<path d="M1485 1190 c4 -6 53 -10 116 -10 66 0 109 4 109 10 0 6 -45 10 -116
10 -74 0 -113 -4 -109 -10z"/>
<path d="M1870 1190 c0 -7 44 -10 125 -9 69 1 125 6 125 10 0 5 -56 9 -125 9
-80 0 -125 -4 -125 -10z"/>
<path d="M2171 1184 c0 -11 3 -14 6 -6 3 7 2 16 -1 19 -3 4 -6 -2 -5 -13z"/>
<path d="M2260 1191 c0 -4 52 -9 115 -9 65 0 115 3 115 9 0 5 -51 9 -115 9
-63 0 -115 -4 -115 -9z"/>
<path d="M2645 1190 c3 -5 10 -10 16 -10 5 0 9 5 9 10 0 6 -7 10 -16 10 -8 0
-12 -4 -9 -10z"/>
<path d="M2680 1192 c0 -4 27 -8 60 -10 33 -2 60 1 60 6 0 4 -27 9 -60 10 -33
1 -60 -2 -60 -6z"/>
<path d="M93 1145 c0 -22 2 -30 4 -17 2 12 2 30 0 40 -3 9 -5 -1 -4 -23z"/>
<path d="M640 1150 c0 -13 7 -20 20 -20 13 0 20 7 20 20 0 13 -7 20 -20 20
-13 0 -20 -7 -20 -20z m30 0 c0 -5 -4 -10 -10 -10 -5 0 -10 5 -10 10 0 6 5 10
10 10 6 0 10 -4 10 -10z"/>
<path d="M1800 1161 c0 -5 -8 -12 -17 -14 -10 -2 -2 -2 17 0 23 2 30 1 22 -5
-11 -8 -11 -10 2 -15 19 -8 22 13 4 31 -14 14 -28 16 -28 3z"/>
<path d="M260 1145 c0 -8 7 -15 15 -15 8 0 15 7 15 15 0 8 -7 15 -15 15 -8 0
-15 -7 -15 -15z"/>
<path d="M1036 1145 c4 -8 10 -12 15 -9 14 8 10 24 -6 24 -9 0 -12 -6 -9 -15z"/>
<path d="M1420 1145 c0 -9 6 -12 15 -9 8 4 15 10 15 15 0 5 -7 9 -15 9 -8 0
-15 -7 -15 -15z"/>
<path d="M2190 1145 c0 -17 2 -18 24 -9 23 9 20 24 -4 24 -11 0 -20 -7 -20
-15z"/>
<path d="M2580 1145 c0 -8 7 -15 15 -15 8 0 15 7 15 15 0 8 -7 15 -15 15 -8 0
-15 -7 -15 -15z"/>
<path d="M2945 1149 c-10 -15 3 -25 16 -12 7 7 7 13 1 17 -6 3 -14 1 -17 -5z"/>
<path d="M2981 1138 c-1 -19 -7 -28 -23 -31 l-23 -4 23 -2 c25 -1 36 17 29 46
-3 12 -5 9 -6 -9z"/>
<path d="M584 1118 c-4 -18 -8 -37 -8 -43 -1 -6 -55 -12 -131 -15 l-130 -6
127 -2 c77 -1 129 2 133 8 4 6 11 8 16 5 5 -4 9 -1 9 4 0 6 -4 11 -9 11 -17 0
9 58 27 63 12 3 11 5 -5 6 -16 1 -23 -7 -29 -31z"/>
<path d="M988 1143 c6 -2 18 -2 25 0 6 3 1 5 -13 5 -14 0 -19 -2 -12 -5z"/>
<path d="M1378 1143 c6 -2 18 -2 25 0 6 3 1 5 -13 5 -14 0 -19 -2 -12 -5z"/>
<path d="M1484 1138 c-3 -4 14 -9 38 -9 41 -1 42 -2 13 -10 l-30 -8 33 3 c17
1 32 -1 32 -4 0 -4 11 -5 25 -2 20 3 24 1 19 -12 -4 -11 -1 -16 11 -16 11 0
15 5 11 16 -3 8 -2 12 3 9 5 -3 12 -2 14 2 3 5 -13 9 -36 10 -22 2 -43 7 -46
12 -8 11 -81 19 -87 9z"/>
<path d="M1580 1138 c0 -5 35 -8 77 -8 42 0 74 3 71 6 -9 8 -148 10 -148 2z"/>
<path d="M2158 1143 c7 -3 16 -2 19 1 4 3 -2 6 -13 5 -11 0 -14 -3 -6 -6z"/>
<path d="M2538 1143 c6 -2 18 -2 25 0 6 3 1 5 -13 5 -14 0 -19 -2 -12 -5z"/>
<path d="M1100 1129 c0 -10 63 -15 91 -8 17 4 7 7 -34 10 -31 2 -57 1 -57 -2z"/>
<path d="M1461 1103 c-1 -41 -2 -42 -38 -46 -36 -3 -36 -4 7 -5 l46 -2 -4 38
c-5 55 -10 62 -11 15z"/>
<path d="M1905 1130 c37 -7 25 -14 -20 -11 -20 1 -20 1 0 -8 11 -4 29 -5 41
-1 11 5 28 4 37 -1 11 -7 17 -6 17 0 0 5 -8 12 -17 14 -10 3 -1 5 19 6 25 1
41 -5 48 -16 11 -17 11 -17 6 0 -3 10 -6 21 -6 23 0 2 -37 3 -82 3 -67 -2 -75
-3 -43 -9z"/>
<path d="M2048 1133 c7 -3 16 -2 19 1 4 3 -2 6 -13 5 -11 0 -14 -3 -6 -6z"/>
<path d="M733 1123 c15 -2 37 -2 50 0 12 2 0 4 -28 4 -27 0 -38 -2 -22 -4z"/>
<path d="M971 1114 c0 -11 3 -14 6 -6 3 7 2 16 -1 19 -3 4 -6 -2 -5 -13z"/>
<path d="M1006 1108 c-15 -57 -13 -58 82 -56 67 1 77 2 42 7 -42 6 -45 8 -51
41 l-6 35 -2 -37 c-1 -36 -3 -38 -32 -38 -30 0 -31 1 -25 35 8 39 2 48 -8 13z"/>
<path d="M1233 1123 c9 -2 23 -2 30 0 6 3 -1 5 -18 5 -16 0 -22 -2 -12 -5z"/>
<path d="M1746 1115 c-9 -26 -7 -32 5 -12 6 10 9 21 6 23 -2 3 -7 -2 -11 -11z"/>
<path d="M1850 1094 c0 -36 0 -36 -40 -32 -22 2 -40 0 -40 -4 0 -5 20 -8 45
-8 l45 0 0 40 c0 22 -2 40 -5 40 -3 0 -5 -16 -5 -36z"/>
<path d="M2133 1115 c-3 -9 -3 -18 -1 -21 3 -3 8 4 11 16 6 23 -1 27 -10 5z"/>
<path d="M2650 1119 c0 -5 11 -9 25 -9 14 0 25 2 25 4 0 2 -11 6 -25 8 -14 3
-25 1 -25 -3z"/>
<path d="M37 1114 c-4 -4 -7 -16 -7 -26 0 -13 7 -18 26 -18 21 0 25 4 22 22
-3 23 -27 35 -41 22z"/>
<path d="M329 1111 c12 -8 51 -4 51 5 0 2 -15 4 -32 4 -23 0 -29 -3 -19 -9z"/>
<path d="M398 1113 c7 -3 16 -2 19 1 4 3 -2 6 -13 5 -11 0 -14 -3 -6 -6z"/>
<path d="M438 1113 c6 -2 18 -2 25 0 6 3 1 5 -13 5 -14 0 -19 -2 -12 -5z"/>
<path d="M617 1101 c-4 -17 -3 -21 5 -13 5 5 8 16 6 23 -3 8 -7 3 -11 -10z"/>
<path d="M1487 1108 c6 -7 9 -20 8 -30 -4 -20 20 -26 60 -17 30 8 30 8 -5 6
-25 -1 -35 2 -35 13 0 16 -19 40 -31 40 -3 0 -2 -6 3 -12z"/>
<path d="M1670 1109 c0 -5 5 -7 10 -4 6 3 10 8 10 11 0 2 -4 4 -10 4 -5 0 -10
-5 -10 -11z"/>
<path d="M1782 1100 c0 -14 2 -19 5 -12 2 6 2 18 0 25 -3 6 -5 1 -5 -13z"/>
<path d="M2004 1112 c4 -7 1 -12 -8 -12 -9 0 -16 -4 -16 -10 0 -16 27 -12 33
5 4 8 1 17 -5 21 -7 4 -8 3 -4 -4z"/>
<path d="M2167 1101 c-4 -17 -3 -21 5 -13 5 5 8 16 6 23 -3 8 -7 3 -11 -10z"/>
<path d="M2262 1115 c10 -10 158 -13 158 -4 0 5 -37 9 -82 9 -45 0 -79 -2 -76
-5z"/>
<path d="M2430 1111 c0 -10 26 -9 36 2 4 4 -2 7 -14 7 -12 0 -22 -4 -22 -9z"/>
<path d="M2516 1104 c-7 -19 0 -34 17 -34 9 0 8 3 -1 8 -7 5 -10 16 -6 25 3 9
4 17 1 17 -3 0 -8 -7 -11 -16z"/>
<path d="M2556 1104 c-3 -9 -6 -24 -6 -35 0 -18 8 -19 173 -17 158 2 162 3 45
5 l-128 4 -9 32 -9 32 -1 -32 c-1 -30 -4 -33 -32 -33 -30 0 -31 2 -25 30 6 32
2 40 -8 14z"/>
<path d="M2735 1110 c17 -4 22 -8 13 -9 -25 -1 -23 -21 2 -21 13 0 20 7 20 20
0 16 -6 20 -32 19 l-33 -1 30 -8z"/>
<path d="M714 1093 c2 -15 15 -19 74 -21 48 -2 72 1 72 8 0 6 -4 8 -10 5 -5
-3 -10 -2 -10 3 0 5 23 8 50 7 28 -1 53 1 56 6 3 5 -49 9 -115 9 -108 0 -119
-2 -117 -17z m116 -4 c0 -4 -24 -7 -54 -6 -30 1 -52 5 -49 10 6 10 103 6 103
-4z"/>
<path d="M1100 1090 c0 -17 7 -20 50 -20 28 0 50 4 50 9 0 4 -16 7 -35 4 -22
-2 -35 1 -35 8 0 6 7 9 15 5 8 -3 15 -1 15 4 0 6 -13 10 -30 10 -23 0 -30 -4
-30 -20z"/>
<path d="M1178 1103 c7 -3 16 -2 19 1 4 3 -2 6 -13 5 -11 0 -14 -3 -6 -6z"/>
<path d="M1230 1099 c0 -4 16 -8 35 -7 19 1 35 5 35 9 0 4 -16 7 -35 7 -19 0
-35 -4 -35 -9z"/>
<path d="M1392 1090 c0 -14 2 -19 5 -12 2 6 2 18 0 25 -3 6 -5 1 -5 -13z"/>
<path d="M325 1090 c-3 -5 29 -8 70 -9 41 -1 75 3 75 7 0 10 -139 12 -145 2z"/>
<path d="M1350 1093 c0 -15 18 -35 23 -27 3 5 -1 15 -9 22 -8 7 -14 9 -14 5z"/>
<path d="M1654 1089 c-3 -5 7 -9 22 -9 15 0 24 3 20 7 -11 11 -35 12 -42 2z"/>
<path d="M1876 1089 c5 -9 94 -10 94 0 0 3 -22 7 -50 7 -27 1 -47 -2 -44 -7z"/>
<path d="M2035 1089 c-14 -5 -7 -8 28 -8 26 -1 47 2 47 7 0 10 -50 11 -75 1z"/>
<path d="M2260 1089 c0 -5 9 -9 20 -9 11 0 20 4 20 8 0 4 -9 8 -20 9 -11 1
-20 -2 -20 -8z"/>
<path d="M2650 1090 c0 -4 16 -7 35 -8 19 -1 35 2 35 7 0 4 -16 8 -35 8 -19 0
-35 -3 -35 -7z"/>
<path d="M967 1079 c7 -7 15 -10 18 -7 3 3 -2 9 -12 12 -14 6 -15 5 -6 -5z"/>
<path d="M1548 1083 c12 -2 30 -2 40 0 9 3 -1 5 -23 4 -22 0 -30 -2 -17 -4z"/>
<path d="M2982 1065 c0 -16 2 -22 5 -12 2 9 2 23 0 30 -3 6 -5 -1 -5 -18z"/>
<path d="M2126 1072 c-2 -4 -35 -6 -72 -5 -37 2 -65 1 -62 -2 9 -9 128 -13
134 -4 3 5 10 7 15 4 5 -4 9 -1 9 4 0 13 -17 15 -24 3z"/>
<path d="M2945 1071 c-3 -5 -1 -12 5 -16 5 -3 10 1 10 9 0 18 -6 21 -15 7z"/>
<path d="M95 550 c0 -289 1 -407 2 -262 2 144 2 380 0 525 -1 144 -2 26 -2
-263z"/>
<path d="M145 580 c0 -272 1 -384 2 -247 2 136 2 358 0 495 -1 136 -2 24 -2
-248z"/>
<path d="M610 1060 c0 -6 7 -10 15 -10 8 0 15 2 15 4 0 2 -7 6 -15 10 -8 3
-15 1 -15 -4z"/>
<path d="M1260 1060 l-85 -6 88 -2 c52 -1 87 2 87 8 0 6 -1 9 -2 8 -2 -1 -41
-5 -88 -8z"/>
<path d="M1594 1063 c7 -8 134 -8 129 0 -2 4 -33 7 -69 6 -36 -1 -63 -4 -60
-6z"/>
<path d="M1879 1060 c12 -7 91 -2 100 6 2 2 -22 3 -54 3 -32 -1 -52 -4 -46 -9z"/>
<path d="M650 1021 c0 -37 -2 -40 -32 -44 -32 -4 -32 -4 5 -5 l37 -2 0 45 c0
25 -2 45 -5 45 -3 0 -5 -18 -5 -39z"/>
<path d="M853 1053 c20 -2 54 -2 75 0 20 2 3 4 -38 4 -41 0 -58 -2 -37 -4z"/>
<path d="M2948 995 c2 -19 -1 -42 -8 -50 -10 -12 -10 -18 0 -30 7 -8 10 -28 8
-45 -3 -16 -1 -30 3 -30 4 0 9 20 10 44 5 58 -1 146 -10 146 -4 0 -5 -16 -3
-35z m12 -65 c0 -5 -4 -10 -10 -10 -5 0 -10 5 -10 10 0 6 5 10 10 10 6 0 10
-4 10 -10z"/>
<path d="M335 980 c-3 -5 1 -10 10 -10 9 0 13 5 10 10 -3 6 -8 10 -10 10 -2 0
-7 -4 -10 -10z"/>
<path d="M370 978 c0 -7 111 -15 153 -10 59 7 22 17 -63 17 -49 0 -90 -3 -90
-7z"/>
<path d="M571 870 c15 -45 24 -54 15 -15 -4 17 -12 34 -17 40 -5 5 -4 -6 2
-25z"/>
<path d="M610 883 c0 -10 4 -14 8 -8 4 6 11 13 16 18 5 4 2 7 -7 7 -10 0 -17
-8 -17 -17z"/>
<path d="M667 893 c18 -4 23 -12 26 -51 l3 -47 2 53 c2 51 1 52 -25 51 -23 -1
-24 -2 -6 -6z"/>
<path d="M728 893 c6 -2 18 -2 25 0 6 3 1 5 -13 5 -14 0 -19 -2 -12 -5z"/>
<path d="M808 893 c23 -2 59 -2 80 0 20 2 1 4 -43 4 -44 0 -61 -2 -37 -4z"/>
<path d="M961 870 c15 -45 24 -54 15 -15 -4 17 -12 34 -17 40 -5 5 -4 -6 2
-25z"/>
<path d="M1001 878 c1 -17 2 -19 6 -5 3 11 14 17 33 17 19 0 30 -6 32 -17 3
-15 5 -14 10 5 6 20 3 22 -38 22 -39 0 -44 -2 -43 -22z"/>
<path d="M1360 810 c0 -53 4 -90 10 -90 6 0 10 37 10 90 0 53 -4 90 -10 90 -6
0 -10 -37 -10 -90z"/>
<path d="M358 862 c-21 -2 -38 -6 -38 -10 0 -8 219 -6 227 2 4 3 -2 6 -13 7
-101 3 -145 4 -176 1z"/>
<path d="M710 855 c0 -6 42 -10 105 -10 58 0 105 3 105 8 0 8 6 8 -118 10 -56
1 -92 -2 -92 -8z"/>
<path d="M1097 863 c-9 -14 9 -35 25 -31 13 2 12 6 -2 21 -10 10 -20 14 -23
10z"/>
<path d="M1163 853 c26 -3 37 -9 38 -21 0 -14 2 -14 6 -2 3 8 11 18 17 22 6 4
-14 7 -44 6 -43 -1 -46 -2 -17 -5z"/>
<path d="M1158 833 c6 -2 18 -2 25 0 6 3 1 5 -13 5 -14 0 -19 -2 -12 -5z"/>
<path d="M640 820 c0 -5 5 -10 10 -10 6 0 10 5 10 10 0 6 -4 10 -10 10 -5 0
-10 -4 -10 -10z"/>
<path d="M1036 823 c-12 -12 -6 -33 9 -33 8 0 15 6 15 14 0 17 -14 28 -24 19z"/>
<path d="M2981 808 c-1 -22 -6 -27 -33 -31 l-33 -4 33 -1 c35 -2 47 13 39 45
-3 12 -5 9 -6 -9z"/>
<path d="M590 810 c0 -5 9 -10 20 -10 11 0 20 5 20 10 0 6 -9 10 -20 10 -11 0
-20 -4 -20 -10z"/>
<path d="M980 810 c0 -5 9 -10 20 -10 11 0 20 5 20 10 0 6 -9 10 -20 10 -11 0
-20 -4 -20 -10z"/>
<path d="M2940 810 c0 -5 4 -10 9 -10 6 0 13 5 16 10 3 6 -1 10 -9 10 -9 0
-16 -4 -16 -10z"/>
<path d="M660 800 c-13 -8 -12 -10 3 -10 9 0 17 5 17 10 0 12 -1 12 -20 0z"/>
<path d="M737 787 c-7 -4 28 -7 76 -6 48 1 85 4 82 7 -9 9 -145 8 -158 -1z"/>
<path d="M320 778 c0 -5 23 -8 52 -8 28 0 48 3 45 7 -10 9 -97 10 -97 1z"/>
<path d="M430 779 c0 -5 9 -9 20 -9 11 0 20 2 20 4 0 2 -9 6 -20 9 -11 3 -20
1 -20 -4z"/>
<path d="M577 768 c-7 -25 -1 -38 16 -37 9 0 9 2 0 6 -8 3 -11 14 -7 29 3 13
4 24 1 24 -2 0 -7 -10 -10 -22z"/>
<path d="M621 774 c0 -11 3 -14 6 -6 3 7 2 16 -1 19 -3 4 -6 -2 -5 -13z"/>
<path d="M688 755 c-2 -19 0 -35 4 -35 4 0 8 16 8 35 0 19 -2 35 -4 35 -2 0
-6 -16 -8 -35z"/>
<path d="M967 768 c-7 -25 -1 -38 16 -37 9 0 9 2 0 6 -8 3 -11 14 -7 29 3 13
4 24 1 24 -2 0 -7 -10 -10 -22z"/>
<path d="M1070 757 c0 -20 4 -37 10 -37 5 0 7 14 3 33 -8 45 -13 47 -13 4z"/>
<path d="M1100 779 c0 -5 11 -9 25 -9 14 0 25 2 25 4 0 2 -11 6 -25 8 -14 3
-25 1 -25 -3z"/>
<path d="M1160 778 c0 -4 14 -8 32 -8 17 0 28 3 25 7 -10 9 -57 10 -57 1z"/>
<path d="M728 763 c12 -2 30 -2 40 0 9 3 -1 5 -23 4 -22 0 -30 -2 -17 -4z"/>
<path d="M803 763 c9 -2 25 -2 35 0 9 3 1 5 -18 5 -19 0 -27 -2 -17 -5z"/>
<path d="M883 763 c15 -2 37 -2 50 0 12 2 0 4 -28 4 -27 0 -38 -2 -22 -4z"/>
<path d="M324 752 c7 -7 146 -8 146 -1 0 4 -34 6 -75 6 -42 0 -73 -2 -71 -5z"/>
<path d="M1002 740 c0 -14 2 -19 5 -12 2 6 2 18 0 25 -3 6 -5 1 -5 -13z"/>
<path d="M1104 753 c7 -7 108 -5 115 3 2 2 -24 4 -59 4 -35 0 -60 -3 -56 -7z"/>
<path d="M710 741 c0 -4 12 -7 26 -5 38 4 42 14 6 14 -18 0 -32 -4 -32 -9z"/>
<path d="M780 741 c0 -5 15 -9 34 -8 19 1 32 5 29 10 -6 10 -63 9 -63 -2z"/>
<path d="M860 741 c0 -4 13 -8 30 -7 39 1 39 16 0 16 -16 0 -30 -4 -30 -9z"/>
<path d="M2936 736 c7 -17 34 -30 34 -16 0 6 -6 10 -12 10 -9 0 -8 4 2 10 12
8 11 10 -7 10 -15 0 -21 -5 -17 -14z"/>
<path d="M2981 728 c-1 -22 -6 -27 -33 -31 l-33 -4 33 -1 c35 -2 47 13 39 45
-3 12 -5 9 -6 -9z"/>
<path d="M450 720 l-115 -6 112 -2 c66 -1 114 2 118 8 3 6 5 9 3 8 -2 -1 -55
-5 -118 -8z"/>
<path d="M840 720 l-115 -6 112 -2 c66 -1 114 2 118 8 3 6 5 9 3 8 -2 -1 -55
-5 -118 -8z"/>
<path d="M1138 713 c18 -2 45 -2 60 0 15 2 0 4 -33 4 -33 0 -45 -2 -27 -4z"/>
<path d="M1253 713 c15 -2 37 -2 50 0 12 2 0 4 -28 4 -27 0 -38 -2 -22 -4z"/>
<path d="M438 673 l123 -4 16 -37 c9 -20 16 -44 15 -53 0 -12 5 -15 19 -12 22
6 26 23 5 23 -8 0 -21 19 -28 43 l-15 42 -129 0 -129 1 123 -3z"/>
<path d="M695 672 c-6 -4 -7 -24 -4 -47 l6 -40 2 43 1 42 125 0 125 0 12 -27
c11 -27 13 -77 6 -117 -2 -10 4 -21 12 -23 11 -3 12 -2 2 4 -9 7 -10 17 -1 41
11 32 0 90 -24 120 -10 13 -244 18 -262 4z"/>
<path d="M220 580 c0 -53 4 -90 10 -90 6 0 10 37 10 90 0 53 -4 90 -10 90 -6
0 -10 -37 -10 -90z"/>
<path d="M304 580 c0 -52 1 -74 3 -47 2 26 2 68 0 95 -2 26 -3 4 -3 -48z"/>
<path d="M611 654 c0 -11 3 -14 6 -6 3 7 2 16 -1 19 -3 4 -6 -2 -5 -13z"/>
<path d="M2931 659 c0 -9 2 -18 5 -22 11 -10 34 5 34 22 -1 14 -2 14 -14 -2
-14 -18 -14 -18 -19 0 -4 14 -5 14 -6 2z"/>
<path d="M320 625 c0 -8 5 -15 10 -15 6 0 10 7 10 15 0 8 -4 15 -10 15 -5 0
-10 -7 -10 -15z"/>
<path d="M385 630 l-40 -6 50 -5 c28 -2 70 -1 95 2 l45 6 -40 2 c-22 2 -47 4
-55 5 -8 1 -33 -1 -55 -4z"/>
<path d="M710 628 c0 -7 43 -9 125 -8 49 1 55 2 55 8 0 4 -40 7 -90 7 -49 0
-90 -3 -90 -7z"/>
<path d="M621 614 c0 -11 3 -14 6 -6 3 7 2 16 -1 19 -3 4 -6 -2 -5 -13z"/>
<path d="M260 581 c0 -12 6 -21 16 -21 9 0 14 7 12 17 -5 25 -28 28 -28 4z"/>
<path d="M640 580 c0 -5 9 -10 20 -10 11 0 20 5 20 10 0 6 -9 10 -20 10 -11 0
-20 -4 -20 -10z"/>
<path d="M710 570 c0 -5 5 -10 10 -10 6 0 10 5 10 10 0 6 -4 10 -10 10 -5 0
-10 -4 -10 -10z"/>
<path d="M744 568 c-3 -5 7 -9 23 -9 l28 -1 -30 -8 c-20 -5 3 -7 65 -7 91 0
92 1 30 7 l-65 7 60 2 c33 2 65 3 72 2 6 -1 14 2 17 7 3 5 -40 8 -95 8 -55 0
-103 -4 -105 -8z"/>
<path d="M690 536 c0 -34 -1 -35 -42 -39 l-43 -4 48 -1 47 -2 0 40 c0 22 -2
40 -5 40 -3 0 -5 -15 -5 -34z"/>
<path d="M320 549 c0 -5 14 -9 30 -9 39 0 39 15 0 16 -17 1 -30 -3 -30 -7z"/>
<path d="M390 548 c0 -4 18 -8 40 -8 22 0 40 3 40 8 0 4 -18 7 -40 7 -22 1
-40 -3 -40 -7z"/>
<path d="M621 544 c0 -11 3 -14 6 -6 3 7 2 16 -1 19 -3 4 -6 -2 -5 -13z"/>
<path d="M347 523 c18 -2 50 -2 70 0 21 2 7 4 -32 4 -38 0 -55 -2 -38 -4z"/>
<path d="M728 523 c12 -2 30 -2 40 0 9 3 -1 5 -23 4 -22 0 -30 -2 -17 -4z"/>
<path d="M790 526 c0 -2 7 -6 15 -10 8 -3 15 -1 15 4 0 6 -7 10 -15 10 -8 0
-15 -2 -15 -4z"/>
<path d="M846 518 c3 -4 11 -5 19 -1 21 7 19 12 -4 10 -11 0 -18 -5 -15 -9z"/>
<path d="M566 504 c-3 -7 2 -10 15 -7 22 6 26 20 4 20 -8 0 -16 -6 -19 -13z"/>
<path d="M710 499 c0 -5 23 -9 50 -9 28 0 50 4 50 10 0 5 -22 9 -50 9 -27 -1
-50 -6 -50 -10z"/>
<path d="M820 499 c0 -5 29 -9 65 -9 37 0 65 4 65 10 0 6 -27 10 -65 9 -36 -1
-65 -5 -65 -10z"/>
<path d="M268 493 c7 -3 16 -2 19 1 4 3 -2 6 -13 5 -11 0 -14 -3 -6 -6z"/>
<path d="M227 444 c-4 -4 -7 -47 -7 -96 l0 -88 190 0 191 0 -3 93 -3 92 -181
3 c-99 1 -183 -1 -187 -4z m363 -89 l0 -85 -180 0 -180 0 0 85 0 85 180 0 180
0 0 -85z"/>
<path d="M513 355 c0 -33 2 -45 4 -27 2 18 2 45 0 60 -2 15 -4 0 -4 -33z"/>
<path d="M350 350 c0 -5 9 -10 20 -10 11 0 20 5 20 10 0 6 -9 10 -20 10 -11 0
-20 -4 -20 -10z"/>
<path d="M400 349 c0 -5 16 -9 35 -9 19 0 35 4 35 9 0 5 -16 9 -35 9 -19 0
-35 -4 -35 -9z"/>
<path d="M544 348 c10 -6 22 -6 26 -2 5 5 -3 10 -18 11 -22 1 -24 0 -8 -9z"/>
<path d="M248 93 c6 -2 18 -2 25 0 6 3 1 5 -13 5 -14 0 -19 -2 -12 -5z"/>
<path d="M553 93 c48 -2 125 -2 170 0 45 1 6 3 -88 3 -93 0 -130 -2 -82 -3z"/>
<path d="M1558 93 c6 -2 18 -2 25 0 6 3 1 5 -13 5 -14 0 -19 -2 -12 -5z"/>
<path d="M1973 93 c104 -2 270 -2 370 0 100 1 16 2 -188 2 -203 0 -285 -1
-182 -2z"/>
<path d="M190 48 c0 -5 32 -8 70 -8 39 0 70 3 70 8 0 4 -31 7 -70 7 -38 0 -70
-3 -70 -7z"/>
<path d="M370 45 c0 -14 93 -12 97 2 3 7 -13 11 -46 10 -28 -1 -51 -6 -51 -12z"/>
<path d="M2956 52 c-3 -5 1 -9 9 -9 8 0 12 4 9 9 -3 4 -7 8 -9 8 -2 0 -6 -4
-9 -8z"/>
</g>
</svg>
